<svg width="39" height="37" viewBox="0 0 39 37" fill="none" xmlns="http://www.w3.org/2000/svg">
<g clip-path="url(#clip0_1_196)">
<path d="M27.625 21.5833C27.0562 25.8074 23.985 29.2916 19.5 29.2916C17.3451 29.2916 15.2785 28.4795 13.7548 27.0339C12.231 25.5883 11.375 23.6276 11.375 21.5833C11.2568 20.2181 11.573 18.8507 12.2828 17.6579C12.9925 16.4651 14.0632 15.5017 15.3562 14.8924C18.7037 13.0733 20.15 10.7916 19.5 7.70825C20.947 9.42011 21.9867 11.4087 22.5477 13.5375C23.1087 15.6663 23.1777 17.8851 22.75 20.0416C23.8319 19.3916 24.7064 18.4738 25.2791 17.3871C25.8518 16.3004 26.1011 15.0861 26 13.8749C27.3448 16.2314 27.911 18.9173 27.625 21.5833Z" stroke="#F2F2F2" stroke-width="2" stroke-linecap="round" stroke-linejoin="round"/>
</g>
<defs>
<clipPath id="clip0_1_196">
<rect width="39" height="37" fill="white"/>
</clipPath>
</defs>
</svg>
