<svg width="29" height="29" viewBox="0 0 29 29" fill="none" xmlns="http://www.w3.org/2000/svg">
<g clip-path="url(#clip0_1_192)">
<path fill-rule="evenodd" clip-rule="evenodd" d="M20.5417 3.625C20.8821 3.62498 21.2186 3.69688 21.5293 3.83598C21.84 3.97508 22.1178 4.17824 22.3445 4.43217L22.475 4.59167L26.9507 10.5596C27.2669 10.9812 27.4367 11.4947 27.434 12.0217C27.4314 12.5488 27.2566 13.0605 26.9362 13.479L26.8057 13.636L15.6177 25.9417C15.3507 26.2355 14.9788 26.4125 14.5824 26.4342C14.186 26.4559 13.797 26.3206 13.4995 26.0577L13.3823 25.9417L2.19433 13.6348C1.83971 13.2447 1.62239 12.7494 1.57549 12.2243C1.52859 11.6992 1.65467 11.1731 1.93453 10.7264L2.04933 10.5596L6.52499 4.59167C6.72925 4.31923 6.98877 4.09304 7.28655 3.92791C7.58433 3.76278 7.91364 3.66243 8.25291 3.63346L8.45833 3.625H20.5417ZM17.5486 13.2917H11.4514L14.5 20.9126L17.5486 13.2917ZM23.8525 13.2917H20.1514L17.2441 20.5598L23.8525 13.2917ZM8.84862 13.2917H5.1487L11.7559 20.5598L8.84862 13.2917ZM14.9616 6.04167H14.0384L11.6217 10.875H17.3782L14.9616 6.04167ZM20.5417 6.04167H17.6634L20.0801 10.875H24.1667L20.5417 6.04167ZM11.3366 6.04167H8.45833L4.83333 10.875H8.91991L11.3366 6.04167Z" fill="#F2F2F2"/>
</g>
<defs>
<clipPath id="clip0_1_192">
<rect width="29" height="29" fill="white"/>
</clipPath>
</defs>
</svg>
