<svg width="34" height="24" viewBox="0 0 34 24" fill="none" xmlns="http://www.w3.org/2000/svg">
<path d="M6.12012 14.7139H6.34473C7.51743 15.2466 8.81169 15.5713 10.2002 15.5713C11.5871 15.5713 12.8856 15.2471 14.0557 14.7139H14.2803C17.0987 14.714 19.4004 17.0231 19.4004 19.8857V21.4287C19.4003 22.3039 18.6972 23 17.8496 23H2.5498C1.70228 22.9999 1.00007 22.3038 1 21.4287V19.8857L1.00684 19.6191C1.14443 16.881 3.38956 14.7139 6.12012 14.7139ZM22.9502 14.7139H22.9912C23.7602 14.9671 24.5976 15.1426 25.5 15.1426C26.4024 15.1426 27.2398 14.9671 28.0088 14.7139H28.0498C30.7779 14.7139 32.9998 16.9424 33 19.7139C33 20.5891 32.2978 21.286 31.4502 21.2861H23.0996V19.8857C23.0996 18.041 22.5248 16.3407 21.5684 14.9287C22.0098 14.7909 22.4716 14.7139 22.9502 14.7139ZM10.2002 1C12.9284 1.00011 15.1504 3.22837 15.1504 6C15.1504 8.77163 12.9284 10.9999 10.2002 11C7.47192 11 5.25 8.77169 5.25 6C5.25 3.22831 7.47192 1 10.2002 1ZM25.5 2.71387C27.7555 2.71387 29.5996 4.56251 29.5996 6.85742C29.5995 9.1522 27.7554 11 25.5 11C23.2446 11 21.4005 9.1522 21.4004 6.85742C21.4004 4.56251 23.2445 2.71387 25.5 2.71387Z" stroke="#F2F2F2" stroke-width="2"/>
</svg>
