<svg width="21" height="24" viewBox="0 0 21 24" fill="none" xmlns="http://www.w3.org/2000/svg">
<path d="M6.12012 14.7139H6.34473C7.51743 15.2466 8.81169 15.5713 10.2002 15.5713C11.5871 15.5713 12.8856 15.2471 14.0557 14.7139H14.2803C17.0987 14.714 19.4004 17.0231 19.4004 19.8857V21.4287C19.4003 22.3039 18.6972 23 17.8496 23H2.5498C1.70228 22.9999 1.00007 22.3038 1 21.4287V19.8857L1.00684 19.6191C1.14443 16.881 3.38956 14.7139 6.12012 14.7139ZM10.2002 1C12.9284 1.00011 15.1504 3.22837 15.1504 6C15.1504 8.77163 12.9284 10.9999 10.2002 11C7.47192 11 5.25 8.77169 5.25 6C5.25 3.22831 7.47192 1 10.2002 1Z" stroke="#F2F2F2" stroke-width="2"/>
</svg>
