<svg width="23" height="24" viewBox="0 0 23 24" fill="none" xmlns="http://www.w3.org/2000/svg">
<g clip-path="url(#clip0_1_208)">
<path d="M1.60667 5.31834L10.1575 1.02471C10.5388 0.834142 10.9906 0.826364 11.3779 1.00332L20.8184 5.33001C21.4215 5.60614 21.4397 6.4287 20.8486 6.72816L11.6583 11.3893C11.0975 11.6732 10.4278 11.6752 9.86706 11.3932L1.60667 7.24348C0.797777 6.83706 0.797777 5.72281 1.60667 5.31834Z" stroke="#F2F2F2" stroke-width="2" stroke-miterlimit="10"/>
<path d="M5.89597 8.94312L1.59734 10.9324C0.80257 11.2999 0.800553 12.3889 1.59331 12.7584L10.8683 17.0987C11.5098 17.3981 12.2622 17.3865 12.8936 17.0656L21.6038 12.6417C22.2776 12.2995 22.2816 11.37 21.6099 11.0219L17.7328 9.01312" stroke="#F2F2F2" stroke-width="2" stroke-miterlimit="10"/>
<path d="M5.58681 15.1037L1.53427 16.8499C0.846411 17.1455 0.816153 18.075 1.48183 18.4133L10.3191 22.9092C10.8759 23.1931 11.5395 23.197 12.1003 22.9209L21.1434 18.4814C21.8696 18.1236 21.8333 17.1105 21.0808 16.8052L16.7076 15.0278" stroke="#F2F2F2" stroke-width="2" stroke-miterlimit="10"/>
</g>
<defs>
<clipPath id="clip0_1_208">
<rect width="23" height="24" fill="white"/>
</clipPath>
</defs>
</svg>
